<svg id="Layer_1" enable-background="new 0 0 511.449 511.449" height="512" viewBox="0 0 511.449 511.449" width="512" xmlns="http://www.w3.org/2000/svg"><path d="m436.508 74.941c-99.912-99.914-261.639-99.93-361.566 0-99.914 99.912-99.93 261.639 0 361.566 99.912 99.914 261.639 99.93 361.566 0 99.914-99.911 99.929-261.638 0-361.566zm-266.116 74.451h170.666c11.598 0 21 9.402 21 21s-9.402 21-21 21h-170.666c-11.598 0-21-9.402-21-21s9.402-21 21-21zm64 212.666h-64c-11.598 0-21-9.402-21-21s9.402-21 21-21h64c11.598 0 21 9.402 21 21s-9.403 21-21 21zm-64-85.333c-11.598 0-21-9.402-21-21s9.402-21 21-21h117.333c11.598 0 21 9.402 21 21s-9.402 21-21 21zm213.333 85.333h-21.667v21.667c0 11.598-9.402 21-21 21s-21-9.402-21-21v-21.667h-21.666c-11.598 0-21-9.402-21-21s9.402-21 21-21h21.666v-21.666c0-11.598 9.402-21 21-21s21 9.402 21 21v21.666h21.667c11.598 0 21 9.402 21 21s-9.403 21-21 21z"/></svg>