<svg id="Capa_1" enable-background="new 0 0 512 512" height="512" viewBox="0 0 512 512" width="512" xmlns="http://www.w3.org/2000/svg"><g><g><g><path d="m482.193 92.852h-33.533c-5.948-7.285-14.996-11.944-25.112-11.944h-40.157c-6.393-7.062-15.629-11.506-25.883-11.506h-203.015c-10.254 0-19.49 4.444-25.883 11.506h-40.158c-10.116 0-19.164 4.659-25.112 11.944h-33.534c-16.435 0-29.806 13.371-29.806 29.806v142.164c0 16.436 13.371 29.807 29.806 29.807h32.896c.209 0 .416-.007.621-.02 5.948 7.296 15.003 11.964 25.128 11.964h40.158c6.394 7.062 15.629 11.506 25.883 11.506h203.015c10.254 0 19.49-4.444 25.883-11.506h40.157c10.116 0 19.164-4.659 25.112-11.944h33.533c16.436 0 29.807-13.371 29.807-29.807v-142.164c.001-16.435-13.37-29.806-29.806-29.806zm-452.387 181.777c-5.407 0-9.806-4.399-9.806-9.807v-142.164c0-5.407 4.399-9.807 9.806-9.807h26.24c-.002.155-.004.31-.004.465v160.848c0 .155.001.31.004.465zm58.646 11.944c-6.842 0-12.409-5.566-12.409-12.409v-160.848c0-6.843 5.567-12.409 12.409-12.409h31.29c-.109 1.123-.166 2.26-.166 3.411v178.844c0 1.151.057 2.289.166 3.411zm269.056 11.506h-203.015c-8.225 0-14.917-6.691-14.917-14.917v-178.844c0-8.226 6.691-14.917 14.917-14.917h203.015c8.225 0 14.916 6.691 14.916 14.917v178.844c0 8.226-6.692 14.917-14.916 14.917zm66.04-11.506h-31.29c.109-1.123.166-2.26.166-3.411v-178.844c0-1.151-.057-2.289-.166-3.411h31.29c6.843 0 12.409 5.566 12.409 12.409v160.848c0 6.843-5.566 12.409-12.409 12.409zm68.452-21.751c0 5.407-4.399 9.807-9.807 9.807h-26.24c.002-.155.004-.31.004-.465v-160.848c0-.155-.001-.31-.004-.465h26.24c5.407 0 9.807 4.399 9.807 9.807z"/><path d="m502 359.462h-314.979c-9.479-12.512-24.496-20.608-41.367-20.608s-31.888 8.097-41.367 20.608h-94.287c-5.523 0-10 4.478-10 10v42.529c0 5.522 4.477 10 10 10h94.287c9.479 12.511 24.495 20.607 41.367 20.607 17.212 0 32.492-8.426 41.934-21.37h36.43c5.523 0 10-4.478 10-10s-4.477-10-10-10h-27.559c.7-3.393 1.068-6.905 1.068-10.502 0-3.867-.426-7.637-1.232-11.265h295.705v22.488l-177.529-.722h-.042c-5.503 0-9.977 4.451-9.999 9.959-.022 5.523 4.437 10.019 9.959 10.041l187.57.763h.041c2.645 0 5.183-1.048 7.057-2.915 1.884-1.876 2.943-4.426 2.943-7.085v-42.529c0-5.522-4.478-9.999-10-9.999zm-482 42.529v-22.529h75.014c-.806 3.628-1.232 7.397-1.232 11.265s.426 7.637 1.232 11.265h-75.014zm125.654 20.608c-17.574 0-31.872-14.298-31.872-31.872 0-17.575 14.298-31.873 31.872-31.873 17.575 0 31.873 14.298 31.873 31.873-.001 17.574-14.298 31.872-31.873 31.872z"/></g><g><path d="m269.41 421.229c-4.185 0-8.003-2.702-9.415-6.635-1.422-3.961-.136-8.539 3.158-11.167 3.222-2.571 7.792-2.892 11.343-.801 3.607 2.124 5.547 6.448 4.715 10.554-.937 4.616-5.078 8.049-9.801 8.049z"/></g><path d="m326.431 118.496c-2.433-1.896-5.603-2.563-8.592-1.808l-80.804 20.385c-4.441 1.12-7.554 5.115-7.554 9.696v59.549c-4.239-1.911-8.939-2.976-13.883-2.976-18.683 0-33.883 15.197-33.883 33.877s15.2 33.876 33.883 33.876 33.883-15.196 33.883-33.876v-82.659l60.804-15.34v46.713c-4.239-1.911-8.939-2.976-13.883-2.976-18.684 0-33.884 15.197-33.884 33.877s15.2 33.876 33.884 33.876c18.683 0 33.883-15.196 33.883-33.876v-90.45c0-3.082-1.422-5.993-3.854-7.888zm-110.833 132.6c-7.655 0-13.883-6.225-13.883-13.876s6.228-13.877 13.883-13.877 13.883 6.226 13.883 13.877-6.228 13.876-13.883 13.876zm80.804-20.385c-7.655 0-13.884-6.225-13.884-13.876s6.229-13.877 13.884-13.877 13.883 6.226 13.883 13.877-6.227 13.876-13.883 13.876z"/></g></g></svg>